<svg width="22" height="38" viewBox="0 0 22 38" fill="none" xmlns="http://www.w3.org/2000/svg">
<path d="M20.7576 36.1869C21.0589 35.8862 21.2979 35.5291 21.461 35.1359C21.6241 34.7427 21.708 34.3213 21.708 33.8956C21.708 33.47 21.6241 33.0485 21.461 32.6553C21.2979 32.2622 21.0589 31.905 20.7576 31.6044L8.14754 18.9944L20.7576 6.38438C21.3652 5.77668 21.7066 4.95249 21.7066 4.09309C21.7066 3.23379 21.3652 2.40958 20.7576 1.80188C20.1499 1.19418 19.3257 0.852783 18.4663 0.852783C17.6069 0.852783 16.7828 1.19418 16.1751 1.80188L1.25754 16.7194C0.956238 17.0201 0.717238 17.3772 0.554138 17.7704C0.391038 18.1635 0.307138 18.585 0.307138 19.0106C0.307138 19.4363 0.391038 19.8578 0.554138 20.2509C0.717238 20.6441 0.956237 21.0012 1.25754 21.3019L16.1751 36.2194C17.4101 37.4544 19.4901 37.4544 20.7576 36.1869Z" fill="white"/>
</svg>
